<svg width="262" height="91" viewBox="0 0 262 91" fill="none" xmlns="http://www.w3.org/2000/svg">
<g clip-path="url(#clip0_6_111)">
<path d="M83.0686 14.4135C79.4627 13.5864 71.8073 11.9253 59.5185 11.9253C58.4348 11.9253 51.4024 11.9253 51.4024 11.9253L50.041 10.2258C46.9169 6.32521 42.7271 3.41321 37.9707 1.84666L34.5332 0.710938L34.5193 10.0118C34.5193 12.3248 32.9784 14.34 30.7549 14.9986C26.9731 16.1202 23.2965 17.6796 20.9324 18.7588C8.78103 24.3102 0.822998 33.0959 0.822998 42.5158C0.822998 52.651 9.48794 60.5886 23.1559 65.3124C22.7655 66.9628 22.5542 68.6801 22.5542 70.45C22.5542 79.057 27.4198 86.5321 34.5614 90.2887C32.7497 86.2236 31.7434 81.7272 31.7434 76.9928C31.7434 64.6605 38.5684 53.9157 48.6654 48.3086C47.4939 48.1194 46.2942 48.0213 45.0698 48.0213C36.3592 48.0213 28.813 52.9485 25.0661 60.1574C22.1439 58.9143 18.5083 56.2334 18.5083 52.5479C18.5083 49.0746 21.352 47.0577 24.1408 46.6826C39.4152 44.6287 45.1858 43.9981 58.129 40.9528C66.0692 39.0849 71.9268 36.5582 75.9549 33.0959C76.2925 32.7806 76.2118 32.2161 75.7932 32.0132C72.9156 30.6254 65.2812 30.3976 61.1301 30.3837C61.1265 30.3837 61.1229 30.3801 61.1193 30.3801C59.8037 30.3695 59.9093 29.1957 60.6233 28.7507C63.0403 27.3174 66.0906 26.3221 69.4467 25.7157L70.7307 28.0568L73.6472 25.2671L74.8151 28.8872L77.8408 25.2109L79.5191 29.4022C79.5191 29.3987 79.5226 29.3987 79.5226 29.3987L82.3053 25.1722C83.8744 22.2563 84.6905 19.5405 85.1126 17.6657C85.4327 16.2008 84.5356 14.7498 83.0686 14.4135ZM67.6982 18.1072H67.6735L65.647 18.0617C64.8941 18.0479 64.296 17.4308 64.3103 16.6846C64.3242 15.9453 64.9294 15.3531 65.6716 15.3531H65.6963L67.7228 15.3986C68.4722 15.4124 69.0702 16.0295 69.056 16.7792C69.0456 17.515 68.4404 18.1072 67.6982 18.1072Z" fill="#0E1116"/>
<path d="M57.8462 79.3862C57.8462 78.9989 57.7892 78.6514 57.6753 78.3438C57.5614 78.0247 57.3506 77.7285 57.043 77.4551C56.7354 77.1816 56.291 76.9082 55.71 76.6348C55.1403 76.3499 54.3883 76.0537 53.4541 75.7461C52.3604 75.3815 51.3065 74.9714 50.2925 74.5156C49.2785 74.0485 48.3727 73.5073 47.5752 72.8921C46.7777 72.2655 46.1453 71.5363 45.6782 70.7046C45.2111 69.8615 44.9775 68.8817 44.9775 67.7651C44.9775 66.6942 45.2168 65.7314 45.6953 64.877C46.1738 64.0111 46.8403 63.2762 47.6948 62.6724C48.5607 62.0571 49.5747 61.59 50.7368 61.271C51.8989 60.9406 53.1693 60.7754 54.5479 60.7754C56.3708 60.7754 57.9772 61.0944 59.3672 61.7324C60.7686 62.359 61.8623 63.2534 62.6484 64.4155C63.446 65.5662 63.8447 66.9277 63.8447 68.5H57.8804C57.8804 67.8734 57.7493 67.3208 57.4873 66.8423C57.2367 66.3638 56.855 65.9878 56.3423 65.7144C55.8296 65.4409 55.1859 65.3042 54.4111 65.3042C53.6592 65.3042 53.0269 65.4181 52.5142 65.646C52.0015 65.8739 51.6141 66.1815 51.3521 66.5688C51.09 66.9448 50.959 67.3607 50.959 67.8164C50.959 68.1924 51.0615 68.5342 51.2666 68.8418C51.4831 69.138 51.785 69.4172 52.1724 69.6792C52.5711 69.9412 53.0496 70.1919 53.6079 70.4312C54.1776 70.6704 54.8156 70.904 55.522 71.1318C56.8436 71.5534 58.0171 72.0262 59.0425 72.5503C60.0793 73.063 60.9508 73.6497 61.6572 74.3105C62.375 74.96 62.9162 75.7005 63.2808 76.5322C63.6567 77.3639 63.8447 78.3039 63.8447 79.3521C63.8447 80.4686 63.6283 81.4598 63.1953 82.3257C62.7624 83.1916 62.1414 83.9264 61.3325 84.5303C60.5236 85.1227 59.5552 85.5728 58.4272 85.8804C57.2993 86.188 56.0404 86.3418 54.6504 86.3418C53.3743 86.3418 52.1154 86.1823 50.8735 85.8633C49.6431 85.5329 48.5265 85.0316 47.5239 84.3594C46.5213 83.6758 45.7181 82.8042 45.1143 81.7446C44.5218 80.6737 44.2256 79.4033 44.2256 77.9336H50.2412C50.2412 78.6628 50.3381 79.278 50.5317 79.7793C50.7254 80.2806 51.0103 80.6851 51.3862 80.9927C51.7622 81.2889 52.2236 81.5054 52.7705 81.6421C53.3174 81.7674 53.944 81.8301 54.6504 81.8301C55.4137 81.8301 56.029 81.7218 56.4961 81.5054C56.9632 81.2775 57.305 80.9813 57.5215 80.6167C57.738 80.2407 57.8462 79.8306 57.8462 79.3862ZM85.4531 70.9951V75.6094H72.687V70.9951H85.4531ZM74.6865 61.1172V86H68.688V61.1172H74.6865ZM89.4863 61.1172V86H83.5049V61.1172H89.4863ZM105.899 66.3467L99.8325 86H93.3896L102.533 61.1172H106.617L105.899 66.3467ZM110.924 86L104.84 66.3467L104.054 61.1172H108.189L117.384 86H110.924ZM110.685 76.7202V81.3516H97.9185V76.7202H110.685ZM120.962 61.1172H130.755C132.669 61.1172 134.332 61.402 135.745 61.9717C137.158 62.5413 138.246 63.3844 139.009 64.501C139.784 65.6175 140.171 66.9961 140.171 68.6367C140.171 70.0609 139.949 71.2515 139.505 72.2085C139.061 73.1655 138.44 73.9574 137.642 74.584C136.856 75.1992 135.939 75.7062 134.891 76.105L132.925 77.2158H124.705L124.671 72.5845H130.755C131.518 72.5845 132.151 72.4478 132.652 72.1743C133.153 71.9009 133.529 71.5135 133.78 71.0122C134.042 70.4995 134.173 69.89 134.173 69.1836C134.173 68.4658 134.042 67.8506 133.78 67.3379C133.518 66.8252 133.13 66.4321 132.618 66.1587C132.116 65.8853 131.495 65.7485 130.755 65.7485H126.961V86H120.962V61.1172ZM134.583 86L129.08 74.9941L135.438 74.96L141.009 85.7437V86H134.583ZM151.543 61.1172V86H145.544V61.1172H151.543ZM166.394 61.1172L156.755 73.7295L151.116 79.8989L150.022 74.396L153.628 68.9272L158.994 61.1172H166.394ZM159.302 86L152.876 74.7891L157.542 71.354L166.394 86H159.302ZM179.611 77.5576H173.425V72.9263H179.611C180.454 72.9263 181.138 72.7839 181.662 72.499C182.186 72.2142 182.568 71.8211 182.807 71.3198C183.058 70.8071 183.183 70.2318 183.183 69.5938C183.183 68.9102 183.058 68.2778 182.807 67.6968C182.568 67.1157 182.186 66.6486 181.662 66.2954C181.138 65.9308 180.454 65.7485 179.611 65.7485H175.681V86H169.682V61.1172H179.611C181.605 61.1172 183.32 61.4818 184.755 62.2109C186.202 62.9401 187.313 63.9427 188.088 65.2188C188.863 66.4834 189.25 67.9303 189.25 69.5596C189.25 71.166 188.863 72.5674 188.088 73.7637C187.313 74.96 186.202 75.8942 184.755 76.5664C183.32 77.2272 181.605 77.5576 179.611 77.5576ZM201.732 66.3467L195.666 86H189.223L198.366 61.1172H202.45L201.732 66.3467ZM206.757 86L200.673 66.3467L199.887 61.1172H204.022L213.217 86H206.757ZM206.518 76.7202V81.3516H193.751V76.7202H206.518ZM216.795 61.1172H226.588C228.502 61.1172 230.165 61.402 231.578 61.9717C232.991 62.5413 234.079 63.3844 234.842 64.501C235.617 65.6175 236.004 66.9961 236.004 68.6367C236.004 70.0609 235.782 71.2515 235.338 72.2085C234.894 73.1655 234.273 73.9574 233.475 74.584C232.689 75.1992 231.772 75.7062 230.724 76.105L228.758 77.2158H220.538L220.504 72.5845H226.588C227.351 72.5845 227.984 72.4478 228.485 72.1743C228.986 71.9009 229.362 71.5135 229.613 71.0122C229.875 70.4995 230.006 69.89 230.006 69.1836C230.006 68.4658 229.875 67.8506 229.613 67.3379C229.351 66.8252 228.963 66.4321 228.451 66.1587C227.949 65.8853 227.328 65.7485 226.588 65.7485H222.794V86H216.795V61.1172ZM230.416 86L224.913 74.9941L231.271 74.96L236.842 85.7437V86H230.416ZM247.376 61.1172V86H241.377V61.1172H247.376ZM262.227 61.1172L252.588 73.7295L246.949 79.8989L245.855 74.396L249.461 68.9272L254.827 61.1172H262.227ZM255.135 86L248.709 74.7891L253.375 71.354L262.227 86H255.135Z" fill="#0E1116"/>
</g>
<defs>
<clipPath id="clip0_6_111">
<rect width="262" height="91" fill="white"/>
</clipPath>
</defs>
</svg>
