<svg width="65" height="63" viewBox="0 0 65 63" fill="none" xmlns="http://www.w3.org/2000/svg">
<path d="M53.2388 9.97861C50.9278 9.40595 46.0214 8.25595 38.1455 8.25595C37.4509 8.25595 32.9439 8.25595 32.9439 8.25595L32.0714 7.07938C30.0691 4.37899 27.3838 2.36299 24.3354 1.27846L22.1323 0.492188L22.1234 6.93123C22.1234 8.53256 21.1359 9.92767 19.7108 10.3837C17.287 11.1601 14.9307 12.2397 13.4155 12.9869C5.62767 16.8301 0.527344 22.9126 0.527344 29.434C0.527344 36.4507 6.08074 41.9459 14.8406 45.2163C14.5904 46.3589 14.455 47.5478 14.455 48.7731C14.455 54.7317 17.5733 59.9068 22.1504 62.5076C20.9893 59.6932 20.3443 56.5804 20.3443 53.3027C20.3443 44.7649 24.7185 37.3263 31.1897 33.4444C30.4389 33.3135 29.67 33.2455 28.8853 33.2455C23.3026 33.2455 18.4662 36.6566 16.0648 41.6474C14.192 40.7868 11.8619 38.9308 11.8619 36.3793C11.8619 33.9747 13.6845 32.5784 15.4718 32.3188C25.2612 30.8968 28.9596 30.4603 37.2549 28.352C42.3438 27.0587 46.098 25.3095 48.6796 22.9126C48.896 22.6943 48.8443 22.3035 48.576 22.163C46.7317 21.2022 41.8389 21.0445 39.1783 21.0349C39.176 21.0349 39.1738 21.0324 39.1715 21.0324C38.3282 21.025 38.3959 20.2124 38.8536 19.9043C40.4026 18.9121 42.3576 18.223 44.5085 17.8032L45.3314 19.4239L47.2006 17.4926L47.9491 19.9988L49.8883 17.4537L50.9639 20.3554C50.9639 20.3529 50.9662 20.3529 50.9662 20.3529L52.7496 17.4269C53.7552 15.4082 54.2783 13.528 54.5489 12.2301C54.754 11.216 54.179 10.2114 53.2388 9.97861ZM43.3879 12.5358H43.3721L42.0733 12.5043C41.5907 12.4947 41.2074 12.0675 41.2165 11.5509C41.2255 11.039 41.6133 10.629 42.0891 10.629H42.1048L43.4036 10.6605C43.8839 10.6701 44.2672 11.0974 44.2581 11.6164C44.2514 12.1258 43.8636 12.5358 43.3879 12.5358Z" fill="#0C151A"/>
</svg>
