<svg width="322" height="101" viewBox="0 0 322 101" fill="none" xmlns="http://www.w3.org/2000/svg">
<path d="M87.5822 13.7026C83.7423 12.8754 75.5901 11.2143 62.504 11.2143C61.35 11.2143 53.8613 11.2143 53.8613 11.2143L52.4116 9.51483C49.0847 5.61427 44.6231 2.70227 39.5581 1.13572L35.8975 0L35.8827 9.30084C35.8827 11.6139 34.2419 13.629 31.8741 14.2877C27.8468 15.4092 23.9317 16.9687 21.4142 18.0479C8.4744 23.5992 0 32.385 0 41.8049C0 51.94 9.22718 59.8776 23.782 64.6015C23.3662 66.2519 23.1413 67.9692 23.1413 69.7391C23.1413 78.346 28.3226 85.8212 35.9275 89.5778C33.9983 85.5126 32.9267 81.0163 32.9267 76.2818C32.9267 63.9495 40.1946 53.2048 50.9467 47.5976C49.6991 47.4085 48.4216 47.3104 47.1178 47.3104C37.842 47.3104 29.8061 52.2375 25.8161 59.4465C22.7043 58.2034 18.8328 55.5224 18.8328 51.8369C18.8328 48.3637 21.8611 46.3467 24.8308 45.9717C41.0963 43.9178 47.2413 43.2872 61.0243 40.2419C69.4797 38.3739 75.7174 35.8472 80.0069 32.385C80.3663 32.0697 80.2805 31.5052 79.8347 31.3022C76.7704 29.9145 68.6407 29.6866 64.2201 29.6728C64.2163 29.6728 64.2125 29.6692 64.2087 29.6692C62.8076 29.6585 62.9201 28.4848 63.6805 28.0397C66.2543 26.6065 69.5025 25.6112 73.0764 25.0047L74.4436 27.3459L77.5494 24.5561L78.7931 28.1762L82.0152 24.5L83.8023 28.6913C83.8023 28.6877 83.8061 28.6878 83.8061 28.6878L86.7693 24.4612C88.4402 21.5453 89.3093 18.8295 89.7588 16.9548C90.0997 15.4899 89.1443 14.0389 87.5822 13.7026ZM71.2144 17.3963H71.1882L69.0302 17.3508C68.2284 17.3369 67.5915 16.7198 67.6067 15.9737C67.6215 15.2343 68.266 14.6421 69.0564 14.6421H69.0826L71.2406 14.6876C72.0386 14.7015 72.6755 15.3186 72.6603 16.0683C72.6493 16.8041 72.0048 17.3963 71.2144 17.3963Z" fill="#ECEBE4"/>
<path d="M65.8242 73.4414C65.8242 72.9987 65.7591 72.6016 65.6289 72.25C65.4987 71.8854 65.2578 71.5469 64.9062 71.2344C64.5547 70.9219 64.0469 70.6094 63.3828 70.2969C62.7318 69.9714 61.8724 69.6328 60.8047 69.2812C59.5547 68.8646 58.3503 68.3958 57.1914 67.875C56.0326 67.3411 54.9974 66.7227 54.0859 66.0195C53.1745 65.3034 52.4518 64.4701 51.918 63.5195C51.3841 62.556 51.1172 61.4362 51.1172 60.1602C51.1172 58.9362 51.3906 57.8359 51.9375 56.8594C52.4844 55.8698 53.2461 55.0299 54.2227 54.3398C55.2122 53.6367 56.3711 53.1029 57.6992 52.7383C59.0273 52.3607 60.4792 52.1719 62.0547 52.1719C64.138 52.1719 65.974 52.5365 67.5625 53.2656C69.1641 53.9818 70.4141 55.0039 71.3125 56.332C72.224 57.6471 72.6797 59.2031 72.6797 61H65.8633C65.8633 60.2839 65.7135 59.6523 65.4141 59.1055C65.1276 58.5586 64.6914 58.1289 64.1055 57.8164C63.5195 57.5039 62.7839 57.3477 61.8984 57.3477C61.0391 57.3477 60.3164 57.4779 59.7305 57.7383C59.1445 57.9987 58.7018 58.3503 58.4023 58.793C58.1029 59.2227 57.9531 59.6979 57.9531 60.2188C57.9531 60.6484 58.0703 61.0391 58.3047 61.3906C58.5521 61.7292 58.8971 62.0482 59.3398 62.3477C59.7956 62.6471 60.3424 62.9336 60.9805 63.207C61.6315 63.4805 62.3607 63.7474 63.168 64.0078C64.6784 64.4896 66.0195 65.0299 67.1914 65.6289C68.3763 66.2148 69.3724 66.8854 70.1797 67.6406C71 68.3828 71.6185 69.2292 72.0352 70.1797C72.4648 71.1302 72.6797 72.2044 72.6797 73.4023C72.6797 74.6784 72.4323 75.8112 71.9375 76.8008C71.4427 77.7904 70.7331 78.6302 69.8086 79.3203C68.8841 79.9974 67.7773 80.5117 66.4883 80.8633C65.1992 81.2148 63.7604 81.3906 62.1719 81.3906C60.7135 81.3906 59.2747 81.2083 57.8555 80.8438C56.4492 80.4661 55.1732 79.8932 54.0273 79.125C52.8815 78.3438 51.9635 77.3477 51.2734 76.1367C50.5964 74.9128 50.2578 73.4609 50.2578 71.7812H57.1328C57.1328 72.6146 57.2435 73.3177 57.4648 73.8906C57.6862 74.4635 58.0117 74.9258 58.4414 75.2773C58.8711 75.6159 59.3984 75.8633 60.0234 76.0195C60.6484 76.1628 61.3646 76.2344 62.1719 76.2344C63.0443 76.2344 63.7474 76.1107 64.2812 75.8633C64.8151 75.6029 65.2057 75.2643 65.4531 74.8477C65.7005 74.418 65.8242 73.9492 65.8242 73.4414ZM97.375 63.8516V69.125H82.7852V63.8516H97.375ZM85.0703 52.5625V81H78.2148V52.5625H85.0703ZM101.984 52.5625V81H95.1484V52.5625H101.984ZM120.742 58.5391L113.809 81H106.445L116.895 52.5625H121.562L120.742 58.5391ZM126.484 81L119.531 58.5391L118.633 52.5625H123.359L133.867 81H126.484ZM126.211 70.3945V75.6875H111.621V70.3945H126.211ZM137.957 52.5625H149.148C151.336 52.5625 153.237 52.888 154.852 53.5391C156.466 54.1901 157.71 55.1536 158.582 56.4297C159.467 57.7057 159.91 59.2812 159.91 61.1562C159.91 62.7839 159.656 64.1445 159.148 65.2383C158.641 66.332 157.931 67.237 157.02 67.9531C156.121 68.6562 155.073 69.2357 153.875 69.6914L151.629 70.9609H142.234L142.195 65.668H149.148C150.021 65.668 150.743 65.5117 151.316 65.1992C151.889 64.8867 152.319 64.444 152.605 63.8711C152.905 63.2852 153.055 62.5885 153.055 61.7812C153.055 60.9609 152.905 60.2578 152.605 59.6719C152.306 59.0859 151.863 58.6367 151.277 58.3242C150.704 58.0117 149.995 57.8555 149.148 57.8555H144.812V81H137.957V52.5625ZM153.523 81L147.234 68.4219L154.5 68.3828L160.867 80.707V81H153.523ZM172.906 52.5625V81H166.051V52.5625H172.906ZM189.879 52.5625L178.863 66.9766L172.418 74.0273L171.168 67.7383L175.289 61.4883L181.422 52.5625H189.879ZM181.773 81L174.43 68.1875L179.762 64.2617L189.879 81H181.773ZM204.984 71.3516H197.914V66.0586H204.984C205.948 66.0586 206.729 65.8958 207.328 65.5703C207.927 65.2448 208.363 64.7956 208.637 64.2227C208.923 63.6367 209.066 62.9792 209.066 62.25C209.066 61.4688 208.923 60.7461 208.637 60.082C208.363 59.418 207.927 58.8841 207.328 58.4805C206.729 58.0638 205.948 57.8555 204.984 57.8555H200.492V81H193.637V52.5625H204.984C207.263 52.5625 209.223 52.9792 210.863 53.8125C212.517 54.6458 213.786 55.7917 214.672 57.25C215.557 58.6953 216 60.349 216 62.2109C216 64.0469 215.557 65.6484 214.672 67.0156C213.786 68.3828 212.517 69.4505 210.863 70.2188C209.223 70.974 207.263 71.3516 204.984 71.3516ZM230.266 58.5391L223.332 81H215.969L226.418 52.5625H231.086L230.266 58.5391ZM236.008 81L229.055 58.5391L228.156 52.5625H232.883L243.391 81H236.008ZM235.734 70.3945V75.6875H221.145V70.3945H235.734ZM247.48 52.5625H258.672C260.859 52.5625 262.76 52.888 264.375 53.5391C265.99 54.1901 267.233 55.1536 268.105 56.4297C268.991 57.7057 269.434 59.2812 269.434 61.1562C269.434 62.7839 269.18 64.1445 268.672 65.2383C268.164 66.332 267.454 67.237 266.543 67.9531C265.645 68.6562 264.596 69.2357 263.398 69.6914L261.152 70.9609H251.758L251.719 65.668H258.672C259.544 65.668 260.267 65.5117 260.84 65.1992C261.413 64.8867 261.842 64.444 262.129 63.8711C262.428 63.2852 262.578 62.5885 262.578 61.7812C262.578 60.9609 262.428 60.2578 262.129 59.6719C261.829 59.0859 261.387 58.6367 260.801 58.3242C260.228 58.0117 259.518 57.8555 258.672 57.8555H254.336V81H247.48V52.5625ZM263.047 81L256.758 68.4219L264.023 68.3828L270.391 80.707V81H263.047ZM282.43 52.5625V81H275.574V52.5625H282.43ZM299.402 52.5625L288.387 66.9766L281.941 74.0273L280.691 67.7383L284.812 61.4883L290.945 52.5625H299.402ZM291.297 81L283.953 68.1875L289.285 64.2617L299.402 81H291.297Z" fill="#E9E8E1"/>
</svg>
